<?xml version="1.0" standalone="no"?>
<!DOCTYPE svg PUBLIC "-//W3C//DTD SVG 20010904//EN"
 "http://www.w3.org/TR/2001/REC-SVG-20010904/DTD/svg10.dtd">
<svg version="1.0" xmlns="http://www.w3.org/2000/svg"
 width="353.000000pt" height="353.000000pt" viewBox="0 0 353.000000 353.000000"
 preserveAspectRatio="xMidYMid meet">
<metadata>
Created by potrace 1.14, written by Peter Selinger 2001-2017
</metadata>
<g transform="translate(0.000000,353.000000) scale(0.100000,-0.100000)"
fill="#000000" stroke="none">
<path d="M1865 3518 c-33 -4 -118 -10 -190 -12 -180 -6 -287 -32 -425 -105
-106 -56 -191 -129 -249 -216 -19 -27 -44 -59 -56 -70 -31 -28 -99 -131 -125
-190 -27 -59 -71 -185 -65 -185 3 0 0 -12 -6 -26 -5 -15 -12 -45 -14 -68 -3
-22 -8 -59 -11 -80 -7 -52 -7 -264 1 -346 3 -36 14 -106 24 -157 l18 -92 -21
-5 c-61 -15 -70 -118 -27 -306 17 -74 31 -138 31 -142 0 -4 -29 -8 -64 -8
-123 0 -149 -29 -141 -157 3 -43 7 -133 10 -201 3 -68 8 -149 10 -180 2 -31 6
-122 10 -202 l6 -145 -61 -63 c-33 -34 -60 -69 -60 -77 0 -8 -4 -15 -8 -15
-20 0 -108 -274 -129 -401 l-4 -26 167 -2 c92 -1 172 -5 178 -8 14 -9 2143
-10 2186 -1 19 4 108 8 197 8 90 1 165 6 168 11 10 14 -48 239 -87 339 -20 51
-59 119 -83 146 -5 6 -19 22 -31 35 -12 13 -31 32 -43 42 -24 20 -24 9 -6 337
12 228 19 366 19 433 1 74 -1 80 -27 103 -24 21 -38 24 -103 24 -47 0 -73 4
-69 10 3 5 8 19 11 30 2 11 6 30 10 43 3 12 7 31 9 42 10 45 15 66 21 88 3 12
8 54 11 93 6 80 -13 138 -48 149 -15 5 -18 12 -13 27 3 11 8 28 9 37 2 9 4 17
5 19 3 3 4 6 18 72 26 118 30 139 37 219 3 29 7 57 10 60 6 11 18 100 19 156
5 142 -63 329 -177 484 -90 121 -151 162 -247 164 -58 1 -60 2 -71 34 -6 18
-15 33 -20 33 -5 0 -18 19 -29 43 -28 62 -54 86 -95 91 -23 3 -55 18 -55 26 0
17 -148 80 -202 86 -29 4 -55 7 -58 8 -3 1 -32 -1 -65 -6z"/>
</g>
</svg>
